<svg width="205" height="143" viewBox="0 0 205 143" fill="none" xmlns="http://www.w3.org/2000/svg">
<mask id="mask0_993_6082" style="mask-type:luminance" maskUnits="userSpaceOnUse" x="0" y="0" width="205" height="143">
<path d="M43.1189 11.7965C32.7027 17.0747 23.3872 24.3336 15.8637 33.9813C-2.51208 57.5449 -6.29409 91.9922 11.8087 116.812C28.7094 139.986 57.8378 145.974 84.6661 139.676C108.105 134.174 127.937 119.432 152.515 118.006C158.592 117.653 164.797 117.54 170.738 116.085C194.159 110.348 206.717 84.7908 204.81 62.1114C202.191 30.9686 177.004 14.898 149.382 7.15476C116.795 -1.97988 74.8518 -4.28256 43.1206 11.7965H43.1189Z" fill="white"/>
</mask>
<g mask="url(#mask0_993_6082)">
<path d="M43.1189 11.7965C32.7027 17.0747 23.3872 24.3336 15.8637 33.9813C-2.51208 57.5449 -6.29409 91.9922 11.8087 116.812C28.7094 139.986 57.8378 145.974 84.6661 139.676C108.105 134.174 127.937 119.432 152.515 118.006C158.592 117.653 164.797 117.54 170.738 116.085C194.159 110.348 206.717 84.7908 204.81 62.1114C202.191 30.9686 177.004 14.898 149.382 7.15476C116.795 -1.97988 74.8518 -4.28256 43.1206 11.7965H43.1189Z" fill="#F7F7F7"/>
<mask id="mask1_993_6082" style="mask-type:luminance" maskUnits="userSpaceOnUse" x="0" y="0" width="205" height="143">
<path d="M43.1189 11.7965C32.7027 17.0747 23.3872 24.3336 15.8637 33.9813C-2.51208 57.5449 -6.29409 91.9922 11.8087 116.812C28.7094 139.986 57.8378 145.974 84.6661 139.676C108.105 134.174 127.937 119.432 152.515 118.006C158.592 117.653 164.797 117.54 170.738 116.085C194.159 110.348 206.717 84.7908 204.81 62.1114C202.191 30.9686 177.004 14.898 149.382 7.15476C116.795 -1.97988 74.8518 -4.28256 43.1206 11.7965H43.1189Z" fill="white"/>
</mask>
<g mask="url(#mask1_993_6082)">
<path opacity="0.48" d="M-7.52148 104.868C-3.96687 93.6791 4.3681 84.0981 14.9567 79.027C25.5453 73.9567 38.2346 73.4698 49.1808 77.7142C64.9597 83.8327 75.878 98.6074 91.0526 106.1C107.299 114.123 127.351 112.738 143.383 104.295C155.811 97.7494 166.089 87.323 179.182 82.2367C191.647 77.3938 205.455 77.8528 218.814 78.4665C216.009 88.6832 209.016 97.0815 201.584 104.633C189.491 116.92 175.166 127.975 158.299 131.544C146.926 133.951 135.077 132.806 123.591 134.612C110.545 136.662 98.4298 142.431 85.9315 146.698C73.4333 150.965 59.6815 153.731 47.1216 149.649C40.7841 147.589 35.1229 143.898 29.5725 140.209C15.097 130.59 1.94791 119.442 -7.52148 104.869V104.868Z" fill="#E8E8E8"/>
</g>
<path d="M157.197 26.2969C157.197 26.2969 153.086 20.3382 154.937 18.3863C156.787 16.4345 159.202 16.732 159.643 18.1623C160.083 19.5926 163.189 24.3451 163.189 24.3451L157.196 26.2969H157.197Z" fill="#FFB2A0"/>
<path d="M158.979 23.6193C158.979 23.6193 148.151 28.2635 150.764 33.0287C150.764 33.0287 148.841 37.8656 154.039 38.7389C154.039 38.7389 153.436 42.0965 156.948 42.1295C156.948 42.1295 157.174 46.0949 161.114 45.4018C165.053 44.7086 167.531 38.9029 174.151 36.8403C175.071 36.5537 196.36 31.9179 196.36 31.9179L191.699 19.172L166.421 25.2533C166.421 25.2533 163.928 21.7452 158.98 23.6193H158.979Z" fill="#FFD1C1"/>
<mask id="mask2_993_6082" style="mask-type:luminance" maskUnits="userSpaceOnUse" x="150" y="19" width="47" height="27">
<path d="M158.977 23.6193C158.977 23.6193 148.149 28.2635 150.762 33.0287C150.762 33.0287 148.839 37.8656 154.037 38.7389C154.037 38.7389 153.434 42.0965 156.946 42.1295C156.946 42.1295 157.172 46.0949 161.112 45.4018C165.051 44.7086 167.529 38.9029 174.149 36.8403C175.069 36.5537 196.358 31.9179 196.358 31.9179L191.697 19.172L166.42 25.2533C166.42 25.2533 163.926 21.7452 158.978 23.6193H158.977Z" fill="white"/>
</mask>
<g mask="url(#mask2_993_6082)">
<path d="M150.748 29.9167C150.748 29.9167 150.541 32.2372 152.387 31.3394L154.937 29.9835C154.937 29.9835 151.188 33.3682 152.277 35.2668C153.366 37.1655 155.479 36.9195 157.724 35.6853C157.724 35.6853 154.737 38.5256 155.646 39.8299C155.646 39.8299 156.653 41.3989 159.157 39.5873C159.157 39.5873 157.977 41.928 158.944 43.5206C159.911 45.1133 160.998 45.519 162.943 44.694C162.943 44.694 160.769 46.9823 158.33 45.9121C155.892 44.8419 155.876 42.7565 155.876 42.7565C155.876 42.7565 152.811 41.5121 151.857 39.2111C151.857 39.2111 149.258 35.7098 149.555 33.6066C149.555 33.6066 148.749 31.7055 150.748 29.9159" fill="#FFB2A0"/>
<path d="M170.936 38.2724C170.936 38.2724 173.869 37.0179 173.341 33.0372C173.341 33.0372 175.369 35.5952 179.494 34.7051C183.617 33.8149 187.634 33.8251 187.634 33.8251L187.269 35.1615C187.269 35.1615 173.084 37.2453 170.936 38.2732" fill="#FFB2A0"/>
<path d="M166.422 25.2527C166.422 25.2527 169.489 29.0093 170.172 30.3027C170.172 30.3027 170.954 26.6027 168.125 24.1013L166.421 25.2527" fill="#FFB2A0"/>
</g>
<path d="M24.959 44.4331C24.959 44.4331 26.6446 35.1895 27.7452 35.0669C28.8458 34.9443 32.2145 36.5158 32.5408 38.7508C32.8671 40.9859 31.7487 47.2143 31.7487 47.2143L24.9598 44.4331H24.959Z" fill="#FFB2A0"/>
<path d="M19.3357 47.3185C19.3357 47.3185 22.4972 41.4967 25.9124 42.6362C29.3275 43.7766 38.2897 47.6457 38.2136 49.3854C38.0961 52.0744 36.1409 51.8799 36.1409 51.8799C36.1409 51.8799 38.8172 53.7405 37.7495 55.8817C36.6819 58.023 34.8737 58.2377 34.8737 58.2377C34.8737 58.2377 35.14 61.7855 32.9675 62.4237C32.9675 62.4237 31.1018 67.6775 27.7594 66.9767C24.417 66.2759 15.3931 61.7204 14.8216 59.3848L-3.51953 60.0864L-0.150887 45.8003C-0.150887 45.8003 18.2959 47.8764 19.3365 47.3177L19.3357 47.3185Z" fill="#FFD1C1"/>
<mask id="mask3_993_6082" style="mask-type:luminance" maskUnits="userSpaceOnUse" x="-4" y="42" width="43" height="26">
<path d="M19.3347 47.3185C19.3347 47.3185 22.4962 41.4967 25.9114 42.6362C29.3265 43.7766 38.2887 47.6457 38.2126 49.3854C38.0951 52.0744 36.1399 51.8799 36.1399 51.8799C36.1399 51.8799 38.8162 53.7405 37.7485 55.8817C36.6809 58.023 34.8727 58.2377 34.8727 58.2377C34.8727 58.2377 35.139 61.7855 32.9665 62.4237C32.9665 62.4237 31.1009 67.6775 27.7584 66.9767C24.416 66.2759 15.3921 61.7204 14.8206 59.3848L-3.52051 60.0864L-0.151863 45.8003C-0.151863 45.8003 18.2949 47.8764 19.3355 47.3177L19.3347 47.3185Z" fill="white"/>
</mask>
<g mask="url(#mask3_993_6082)">
<path d="M36.8771 47.0382C36.8771 47.0382 36.7233 49.6427 35.6751 50.5582C34.6277 51.4737 31.997 50.1566 31.997 50.1566C31.997 50.1566 36.5365 53.2649 36.5052 54.9818C36.4748 56.6987 30.4602 56.2523 30.4602 56.2523C30.4602 56.2523 34.2313 58.4214 34.0343 59.2541C33.8373 60.0859 32.6851 61.7275 32.1238 61.6903C31.5625 61.6523 27.5185 60.6201 27.5185 60.6201C27.5185 60.6201 31.4467 62.758 31.0925 63.6219C30.7383 64.4858 27.0273 67.0962 27.0273 67.0962C27.0273 67.0962 29.789 68.5637 31.4501 67.3228C33.1112 66.0818 36.8433 60.0208 36.8433 60.0208C36.8433 60.0208 40.436 51.8372 40.6194 50.5675C40.8029 49.2978 36.8763 47.0391 36.8763 47.0391L36.8771 47.0382Z" fill="#FFB2A0"/>
<path d="M18.8368 62.974C18.8368 62.974 15.7615 60.0602 18.5748 55.2807C21.3881 50.5012 27.1279 42.7554 27.1279 42.7554C27.1279 42.7554 24.7018 41.02 22.5825 42.4333C20.4633 43.8467 16.825 49.9433 16.825 49.9433L5.60742 61.0349L14.2239 59.7728C14.2239 59.7728 17.1631 62.8582 18.836 62.9732" fill="#FFB2A0"/>
</g>
<path d="M29.9898 96.1822C29.9898 96.1822 29.4023 86.8066 31.787 86.8066C34.1716 86.8066 35.1057 87.947 35.6239 89.5032C36.1421 91.0587 36.2461 95.5178 36.2461 95.5178L29.9898 96.1822Z" fill="#FFB2A0"/>
<path d="M29.1391 118.251C29.1391 118.251 34.7445 121.734 37.6355 113.621C37.6355 113.621 41.0862 114.273 40.9924 110.357C40.9924 110.357 44.0694 110.264 44.2562 105.414C44.2562 105.414 47.1472 103.083 45.6552 99.2594C45.6552 99.2594 46.7744 96.3684 44.536 95.0632C42.2976 93.758 32.5061 93.1984 29.9887 96.1825C27.4704 99.1665 21.8752 111.569 21.8752 111.569L2.38525 134.51L17.3992 146.633L29.1391 118.25V118.251Z" fill="#FFD1C1"/>
<mask id="mask4_993_6082" style="mask-type:luminance" maskUnits="userSpaceOnUse" x="2" y="94" width="45" height="53">
<path d="M29.1377 118.251C29.1377 118.251 34.7431 121.734 37.6341 113.621C37.6341 113.621 41.0847 114.273 40.9909 110.357C40.9909 110.357 44.0679 110.264 44.2547 105.414C44.2547 105.414 47.1457 103.083 45.6537 99.2596C45.6537 99.2596 46.773 96.3685 44.5345 95.0634C42.2961 93.7582 32.5046 93.1986 29.9872 96.1826C27.469 99.1666 21.8737 111.569 21.8737 111.569L2.38379 134.51L17.3977 146.633L29.1377 118.25V118.251Z" fill="white"/>
</mask>
<g mask="url(#mask4_993_6082)">
<path d="M25.225 102.582C25.225 102.582 28.6241 112.282 37.637 113.622C37.637 113.622 38.0656 117.084 33.303 119.615C29.9259 121.411 29.3113 124.339 29.3113 124.339C29.3113 124.339 8.2533 134.547 5.22363 130.332L20.175 110.749L25.2259 102.581L25.225 102.582Z" fill="#FFB2A0"/>
<path d="M42.5417 94.0088C42.5417 94.0088 45.0439 96.8111 44.0625 98.4299C43.081 100.049 37.3421 98.626 38.6667 99.3132C39.9914 99.9996 44.2096 99.8526 44.4065 100.638C44.6026 101.422 45.5841 103.974 43.229 104.366C40.8747 104.758 36.7537 104.513 37.0969 104.758C37.4401 105.003 42.6398 105.199 42.7869 105.69C42.9339 106.181 42.2475 109.124 41.4132 109.516C40.5789 109.909 36.7529 110.301 36.5077 110.4C36.2626 110.498 41.2661 111.528 41.2661 111.528C41.2661 111.528 43.5223 110.449 44.5037 108.683C45.4852 106.917 45.7303 105.592 45.7303 105.592C45.7303 105.592 47.3981 101.324 46.5148 98.7739C46.5148 98.7739 47.8884 94.7882 42.5417 94.0096V94.0088Z" fill="#FFB2A0"/>
</g>
<path d="M177.579 81.0527C177.579 81.0527 179.447 73.8758 182.153 73.7194C184.86 73.563 184.95 76.6147 184.663 77.2343C184.375 77.8539 182.358 83.2209 182.358 83.2209L177.578 81.0527H177.579Z" fill="#FFB2A0"/>
<path d="M205.847 94.8346C205.847 94.8346 187.786 88.1083 186.621 86.29C185.455 84.4717 185.774 80.2382 182.988 78.7648C180.202 77.2914 173.494 76.0082 171.885 76.7233C170.275 77.4385 171.303 79.5569 171.303 79.5569C171.303 79.5569 167.212 80.3084 168.854 84.4471C168.854 84.4471 167.277 86.273 168.846 89.1903C168.846 89.1903 166.91 91.3966 168.978 93.6334C171.046 95.8693 184.026 96.2251 184.026 96.2251C184.026 96.2251 197.343 110.429 199.821 109.022C202.298 107.614 205.847 94.8354 205.847 94.8354V94.8346Z" fill="#FFD1C1"/>
<mask id="mask5_993_6082" style="mask-type:luminance" maskUnits="userSpaceOnUse" x="168" y="76" width="38" height="34">
<path d="M205.846 94.8346C205.846 94.8346 187.786 88.1083 186.62 86.29C185.454 84.4717 185.773 80.2382 182.987 78.7648C180.201 77.2914 173.494 76.0082 171.884 76.7233C170.274 77.4385 171.302 79.5569 171.302 79.5569C171.302 79.5569 167.211 80.3084 168.853 84.4471C168.853 84.4471 167.276 86.273 168.845 89.1903C168.845 89.1903 166.909 91.3966 168.977 93.6334C171.045 95.8693 184.025 96.2251 184.025 96.2251C184.025 96.2251 197.342 110.429 199.82 109.022C202.297 107.614 205.846 94.8354 205.846 94.8354V94.8346Z" fill="white"/>
</mask>
<g mask="url(#mask5_993_6082)">
<path d="M172.942 76.5189C172.942 76.5189 172.117 78.0726 173.005 78.7709C173.893 79.4691 175.798 79.9129 175.798 79.9129C175.798 79.9129 170.974 80.1031 170.72 81.6264C170.466 83.1497 170.657 83.4667 171.99 83.9747C173.323 84.4828 174.973 84.9266 174.973 84.9266C174.973 84.9266 169.832 85.8784 170.149 88.608C170.466 91.3375 173.386 91.1465 173.386 91.1465C173.386 91.1465 168.69 92.035 170.53 95.0181C170.53 95.0181 166.912 95.2083 166.658 92.543C166.405 89.8777 165.008 83.0229 166.405 80.1031C167.801 77.1833 173.196 75.4698 173.196 75.4698L172.942 76.5181" fill="#FFB2A0"/>
<path d="M184.135 79.7017C184.135 79.7017 185.186 84.0458 184.286 86.1989C183.386 88.3519 180.567 93.5583 178.727 94.1458C176.887 94.7333 173.207 95.6336 173.207 95.6336L183.698 96.8078L187.652 99.9389C187.652 99.9389 186.439 94.8111 186.399 93.5194C186.36 92.2278 187.535 86.0814 187.535 86.0814C187.535 86.0814 186.399 84.0458 186.125 83.498C185.851 82.9503 185.286 80.64 184.135 79.7017" fill="#FFB2A0"/>
</g>
<path d="M109.124 37.7502C108.879 37.7502 108.641 37.7933 108.414 37.8728C107.621 28.9765 102.752 24.5901 96.8309 24.5901C90.9102 24.5901 85.648 29.2876 85.1188 38.8195C84.9574 38.7807 84.7917 38.7587 84.6218 38.7587C83.0816 38.7587 81.833 40.4383 81.833 42.5103C81.833 44.5822 83.0816 46.2618 84.6218 46.2618C84.9523 46.2618 85.2684 46.1841 85.5626 46.042C86.3513 50.382 88.042 54.0811 90.2762 56.5487L88.7487 71.3293H104.851L103.405 56.4574C105.768 53.8005 107.51 49.759 108.201 45.042C108.49 45.1781 108.8 45.2534 109.124 45.2534C110.664 45.2534 111.912 43.5737 111.912 41.5018C111.912 39.4299 110.664 37.7502 109.124 37.7502Z" fill="#FFD1C1"/>
<mask id="mask6_993_6082" style="mask-type:luminance" maskUnits="userSpaceOnUse" x="81" y="24" width="31" height="48">
<path d="M109.122 37.7502C108.877 37.7502 108.639 37.7933 108.412 37.8728C107.619 28.9765 102.75 24.5901 96.8289 24.5901C90.9082 24.5901 85.646 29.2876 85.1169 38.8195C84.9554 38.7807 84.7897 38.7587 84.6198 38.7587C83.0796 38.7587 81.8311 40.4383 81.8311 42.5103C81.8311 44.5822 83.0796 46.2618 84.6198 46.2618C84.9503 46.2618 85.2665 46.1841 85.5607 46.042C86.3493 50.382 88.04 54.0811 90.2742 56.5487L88.7467 71.3293H104.849L103.403 56.4574C105.766 53.8005 107.508 49.759 108.199 45.042C108.488 45.1781 108.798 45.2534 109.122 45.2534C110.662 45.2534 111.91 43.5737 111.91 41.5018C111.91 39.4299 110.662 37.7502 109.122 37.7502Z" fill="white"/>
</mask>
<g mask="url(#mask6_993_6082)">
<path d="M85.7409 39.0754L85.2759 41.87C85.2759 41.87 84.4137 39.0458 82.9834 38.7592C82.9834 38.7592 84.5473 38.0094 85.7409 39.0754Z" fill="#FFB2A0"/>
<path d="M107.92 38.2348L107.812 41.4775C107.812 41.4775 109.236 38.8917 110.964 38.4453C110.964 38.4453 109.968 37.2407 107.92 38.2348Z" fill="#FFB2A0"/>
<path d="M84.2366 35.6355C84.2366 35.6355 83.8883 45.1311 107.813 41.4776L107.92 30.5923L95.4609 28.1594L84.2366 35.6355Z" fill="#FFB2A0"/>
</g>
<path d="M137.752 101.883C137.752 101.883 133.11 67.7631 102.302 65.2922L102.314 65.3261C101.981 65.3041 101.646 65.2922 101.309 65.2922H93.5839C93.272 65.2922 92.9617 65.3024 92.654 65.3218L92.6642 65.2922C61.8561 67.764 56.1357 101.907 56.1357 101.907L75.6494 105.188L71.547 142.021H124.635L119.774 105.111L137.752 101.883Z" fill="#FFC967"/>
<mask id="mask7_993_6082" style="mask-type:luminance" maskUnits="userSpaceOnUse" x="56" y="65" width="82" height="78">
<path d="M137.752 101.883C137.752 101.883 133.11 67.7631 102.302 65.2922L102.314 65.3261C101.981 65.3041 101.646 65.2922 101.309 65.2922H93.5839C93.272 65.2922 92.9617 65.3024 92.654 65.3218L92.6642 65.2922C61.8561 67.764 56.1357 101.907 56.1357 101.907L75.6494 105.188L71.547 142.021H124.635L119.774 105.111L137.752 101.883Z" fill="white"/>
</mask>
<g mask="url(#mask7_993_6082)">
<path d="M64.9805 74.2802C64.9805 74.2802 79.2471 111.611 124.992 111.174L130.201 132.024C130.201 132.024 83.0976 151.051 63.1689 146.633L70.8682 100.32L64.9805 74.281" fill="#FFA648"/>
<path d="M79.8535 67.7948C79.8535 67.7948 89.519 74.6243 91.0956 74.3614C92.6713 74.0985 94.3087 69.3181 94.3087 69.3181L92.7769 67.3223C92.7769 67.3223 92.8817 70.789 90.3601 70.0536C87.8385 69.3181 82.4275 66.1659 82.4275 66.1659L79.8535 67.794V67.7948Z" fill="#FFA648"/>
<path d="M98.1913 68.8282C98.1913 68.8282 98.9538 74.7979 101.049 74.7598C103.145 74.7218 116.141 68.6625 116.141 68.6625L114.566 67.5576C114.566 67.5576 102.497 71.7877 102.116 71.5214C101.735 71.2543 99.9817 67.8628 99.9817 67.8628L98.1904 68.829L98.1913 68.8282Z" fill="#FFA648"/>
</g>
<path d="M70.8041 48.5631C70.8041 48.5631 69.3459 41.1031 69.8455 40.6026C70.3451 40.1022 72.1972 40.453 72.9115 41.5291C73.2327 42.0126 75.0426 46.5216 75.0426 46.5216L70.8032 48.5623L70.8041 48.5631Z" fill="#FFB2A0"/>
<path d="M68.0121 64.7942L55.7396 103.133C55.5435 103.837 55.4032 104.556 55.3491 105.285C55.1403 108.129 56.0363 110.97 57.8876 113.194C60.9452 116.866 66.0104 118.168 70.4602 116.424C73.1213 115.382 74.9447 112.901 75.1459 110.051L78.7901 58.4804C80.1054 57.1634 81.0218 55.4093 81.2737 53.3729C81.567 51.0009 81.8155 48.9341 81.8603 48.3829C81.9812 46.9078 78.5348 44.4733 76.0292 44.4733C74.9379 44.4733 70.5346 46.1098 70.1719 47.4049C69.8676 48.4937 68.5979 54.9148 69.4948 58.6055C69.6318 59.171 69.6225 59.7619 69.4449 60.3156L68.0113 64.7959" fill="#FFD1C1"/>
<mask id="mask8_993_6082" style="mask-type:luminance" maskUnits="userSpaceOnUse" x="55" y="44" width="27" height="74">
<path d="M68.0111 64.7942L55.7386 103.133C55.5425 103.837 55.4022 104.556 55.3481 105.285C55.1393 108.129 56.0353 110.97 57.8866 113.194C60.9442 116.866 66.0094 118.168 70.4592 116.424C73.1203 115.382 74.9437 112.901 75.1449 110.051L78.7891 58.4804C80.1044 57.1634 81.0208 55.4093 81.2727 53.3729C81.566 51.0009 81.8145 48.9341 81.8593 48.3829C81.9802 46.9078 78.5338 44.4733 76.0283 44.4733C74.9369 44.4733 70.5336 46.1098 70.171 47.4049C69.8666 48.4937 68.5969 54.9148 69.4938 58.6055C69.6308 59.171 69.6215 59.7619 69.444 60.3156L68.0103 64.7959" fill="white"/>
</mask>
<g mask="url(#mask8_993_6082)">
<path d="M77.2948 92.8414C77.2948 92.8414 68.6082 113.057 55.3213 113.557C55.3213 113.557 57.2427 119.513 65.6935 119.095C74.1443 118.677 78.7919 114.516 78.7919 114.516L77.2948 92.8406V92.8414Z" fill="#FFB2A0"/>
<path d="M78.8304 45.2294C78.8304 45.2294 81.2328 47.543 80.9868 48.647C80.7417 49.7519 78.2564 50.6716 78.2564 50.6716C78.2564 50.6716 80.5878 51.4696 80.8338 51.9912C81.079 52.5127 79.6064 54.9363 78.8093 55.2127C78.0113 55.4892 75.6494 55.8569 75.6494 55.8569C75.6494 55.8569 78.7788 56.5932 78.8397 57.1452C78.9006 57.6972 77.122 58.9246 77.122 58.9246L79.3925 59.0472C79.3925 59.0472 82.2151 56.0716 82.4602 53.3716C82.7054 50.6716 82.9818 46.8981 82.276 46.2852C81.5701 45.6715 78.8312 45.2294 78.8312 45.2294" fill="#FFB2A0"/>
</g>
<path d="M78.792 58.4796C78.792 58.4796 72.4909 59.5067 70.8772 57.1753C70.8772 57.1753 70.5746 59.5634 73.015 60.3258C75.4563 61.0883 78.6086 61.0672 78.6086 61.0672L78.7912 58.4796H78.792Z" fill="#FFB2A0"/>
<path d="M122.686 47.3127C122.686 47.3127 124.144 39.8527 123.644 39.3523C123.145 38.8518 121.293 39.2026 120.578 40.2787C120.257 40.7623 118.447 45.2713 118.447 45.2713L122.687 47.3119L122.686 47.3127Z" fill="#FFB2A0"/>
<path d="M117.459 43.2213C118.551 43.2213 122.954 44.8579 123.316 46.1529C123.62 47.2417 124.89 53.6628 123.993 57.3536C123.856 57.9191 123.865 58.51 124.043 59.0637L137.749 101.883C137.945 102.586 138.085 103.306 138.139 104.034C138.348 106.879 137.452 109.719 135.601 111.943C132.543 115.615 127.478 116.917 123.028 115.174C120.367 114.132 118.544 111.651 118.343 108.8L114.698 57.2301C113.383 55.9131 112.467 54.1591 112.215 52.1227C111.921 49.7507 111.673 47.6838 111.628 47.1327C111.507 45.6576 114.954 43.223 117.459 43.223V43.2213Z" fill="#FFD1C1"/>
<mask id="mask9_993_6082" style="mask-type:luminance" maskUnits="userSpaceOnUse" x="111" y="43" width="28" height="73">
<path d="M117.46 43.2212C118.551 43.2212 122.955 44.8578 123.317 46.1528C123.621 47.2416 124.891 53.6627 123.994 57.3534C123.857 57.919 123.866 58.5098 124.044 59.0635L137.75 101.883C137.946 102.586 138.086 103.306 138.14 104.034C138.349 106.879 137.453 109.719 135.602 111.943C132.544 115.615 127.479 116.917 123.029 115.174C120.368 114.132 118.545 111.651 118.344 108.8L114.699 57.23C113.384 55.913 112.468 54.1589 112.216 52.1225C111.922 49.7505 111.674 47.6837 111.629 47.1325C111.508 45.6574 114.955 43.2229 117.46 43.2229V43.2212Z" fill="white"/>
</mask>
<g mask="url(#mask9_993_6082)">
<path d="M116.734 85.9797C116.734 85.9797 122.192 113.88 130.516 117.189C130.516 117.189 118.573 119.163 114.702 111.368C110.832 103.574 116.734 85.9797 116.734 85.9797Z" fill="#FFB2A0"/>
<path d="M114.878 43.6315C114.878 43.6315 112.423 44.9054 113.324 46.5529C114.225 48.1996 115.593 48.1379 115.593 48.1379C115.593 48.1379 113.169 48.635 113.138 49.9089C113.107 51.1828 113.386 52.2708 115.096 52.1465C116.805 52.0222 114.256 52.5193 114.256 53.7002C114.256 54.8811 116.338 55.5025 116.338 55.5025C116.338 55.5025 114.816 56.8076 114.567 57.4915C114.567 57.4915 112.33 57.0257 111.74 54.7569C111.15 52.488 110.714 47.1125 110.963 46.4599C111.211 45.8073 113.232 44.0981 114.878 43.6323L114.878 43.6315Z" fill="#FFB2A0"/>
</g>
<path d="M114.698 57.2282C114.698 57.2282 120.999 58.2553 122.613 55.9238C122.613 55.9238 122.916 58.3119 120.475 59.0744C118.034 59.8369 114.882 59.8157 114.882 59.8157L114.699 57.2282H114.698Z" fill="#FFB2A0"/>
<path d="M86.931 31.0877C86.931 31.0877 87.8803 35.0557 95.6886 35.6356L91.8516 31.9102C91.8516 31.9102 98.1215 34.5223 103.084 34.8968L98.6261 30.5924C98.6261 30.5924 103.75 34.6018 107.673 34.4141C107.673 34.4141 115.529 20.7443 97.4359 19.8769C82.3662 19.155 86.931 31.0877 86.931 31.0877Z" fill="#373660"/>
<path d="M85.7423 39.0748L95.0359 21.6195C95.0359 21.6195 86.0247 20.7167 83.1134 27.995C80.202 35.2733 82.8623 39.5997 82.8623 39.5997C82.8623 39.5997 83.5174 38.5101 85.7415 39.0756L85.7423 39.0748Z" fill="#373660"/>
<path d="M107.921 38.2348L98.627 20.7796C98.627 20.7796 107.638 19.8768 110.55 27.1551C113.461 34.4334 110.883 38.6101 110.883 38.6101C110.883 38.6101 110.145 37.6693 107.921 38.2348H107.921Z" fill="#373660"/>
<path d="M90.2749 56.5493C90.2749 56.5493 96.0528 63.208 103.404 56.458L103.511 57.5586C103.511 57.5586 97.2743 66.0762 89.7812 61.3313L90.2758 56.5502L90.2749 56.5493Z" fill="#FFB2A0"/>
<path d="M93.2274 51.0862C93.2274 51.0862 96.372 51.9062 100.197 50.5402C100.197 50.5402 99.8117 53.9832 96.2275 53.9722C93.596 53.9638 93.2266 51.0871 93.2266 51.0871L93.2274 51.0862Z" fill="white"/>
<path opacity="0.43" d="M95.3467 41.3546C95.8422 39.2549 94.5418 37.1511 92.4421 36.6555C90.3425 36.1599 88.2386 37.4603 87.743 39.56C87.2474 41.6597 88.5478 43.7636 90.6475 44.2591C92.7472 44.7547 94.8511 43.4543 95.3467 41.3546Z" fill="white"/>
<path opacity="0.43" d="M101.368 44.5534C103.526 44.5534 105.274 42.8045 105.274 40.6471C105.274 38.4897 103.526 36.7408 101.368 36.7408C99.2108 36.7408 97.4619 38.4897 97.4619 40.6471C97.4619 42.8045 99.2108 44.5534 101.368 44.5534Z" fill="white"/>
<path d="M87.635 40.7384C87.5793 40.7384 87.5235 40.7214 87.4753 40.6859L85.5834 39.292C85.4634 39.2041 85.438 39.035 85.526 38.915C85.6139 38.7949 85.7829 38.7696 85.903 38.8575L87.7948 40.2514C87.9149 40.3394 87.9402 40.5084 87.8523 40.6285C87.7999 40.7003 87.7179 40.7384 87.635 40.7384Z" fill="#373660"/>
<path d="M105.236 40.3093C105.149 40.3093 105.065 40.2679 105.012 40.1901C104.93 40.0667 104.963 39.8993 105.086 39.8165L107.772 38.01C107.896 37.9272 108.063 37.9602 108.146 38.0836C108.229 38.207 108.196 38.3744 108.073 38.4572L105.386 40.2637C105.34 40.295 105.288 40.3093 105.236 40.3093H105.236Z" fill="#373660"/>
<path d="M97.4535 40.7379H95.4611C95.3123 40.7379 95.1914 40.617 95.1914 40.4683C95.1914 40.3195 95.3123 40.1986 95.4611 40.1986H97.4535C97.6023 40.1986 97.7232 40.3195 97.7232 40.4683C97.7232 40.617 97.6023 40.7379 97.4535 40.7379Z" fill="#373660"/>
<path d="M98.0857 71.0209C98.8153 70.2153 99.5245 69.2609 99.6386 68.8188C99.8575 67.9727 98.3266 65.2921 98.3266 65.2921H95.1009C95.1009 65.2921 92.695 67.9177 93.4609 69.1756C93.772 69.687 94.2369 70.2973 94.7154 70.8459C94.1423 75.3296 89.7837 109.565 90.0221 111.594C90.2774 113.765 96.5354 121.556 96.5354 121.556C96.5354 121.556 102.155 113.511 102.41 110.445C102.645 107.623 98.7087 76.0041 98.0849 71.0218L98.0857 71.0209Z" fill="#4F5285"/>
<path d="M94.715 70.8447C94.715 70.8447 95.6871 71.242 98.0845 71.0197C98.0845 71.0197 95.9915 71.2547 95.9086 72.7104C95.8258 74.1652 92.7124 108.811 93.7015 110.713C94.6905 112.615 98.6247 118.374 98.6247 118.374L96.535 121.554C96.535 121.554 90.5399 114.533 90.0217 111.592C89.5035 108.652 93.5916 77.8703 94.715 70.8439V70.8447Z" fill="#373660"/>
<path d="M95.1002 65.2922C95.1002 65.2922 92.5194 72.0963 91.4425 72.355C90.3664 72.6137 81.3467 67.8494 81.3467 67.8494C81.3467 67.8494 85.0999 65.7225 89.3697 65.2931H95.1002V65.2922Z" fill="white"/>
<path d="M98.3262 65.2916C98.3262 65.2916 100.119 72.9359 101.604 72.8353C103.09 72.7347 114.561 68.2325 114.561 68.2325C114.561 68.2325 111.186 66.2697 105.282 65.6374C105.282 65.6374 102.1 65.0465 98.3262 65.2916Z" fill="white"/>
</g>
<path d="M78.1389 12.5681C78.1389 5.79105 72.6451 0.297241 65.868 0.297241H43.1312C36.3542 0.297241 30.8604 5.79105 30.8604 12.5681C30.8604 19.3451 36.3542 24.8389 43.1312 24.8389H65.868C65.9179 24.8389 65.9669 24.8355 66.0168 24.8355L74.5293 29.4561C75.7415 30.1138 77.1101 28.8889 76.5894 27.6116L74.1497 21.6216C76.6004 19.3781 78.138 16.1531 78.138 12.5689L78.1389 12.5681Z" fill="#E8E8E8"/>
<path d="M42.2101 15.7133C43.9468 15.7133 45.3547 14.3054 45.3547 12.5687C45.3547 10.832 43.9468 9.42407 42.2101 9.42407C40.4733 9.42407 39.0654 10.832 39.0654 12.5687C39.0654 14.3054 40.4733 15.7133 42.2101 15.7133Z" fill="white"/>
<path d="M54.5001 15.7135C56.2368 15.7135 57.6447 14.3056 57.6447 12.5688C57.6447 10.8321 56.2368 9.42419 54.5001 9.42419C52.7634 9.42419 51.3555 10.8321 51.3555 12.5688C51.3555 14.3056 52.7634 15.7135 54.5001 15.7135Z" fill="white"/>
<path d="M66.7892 15.7135C68.5259 15.7135 69.9338 14.3056 69.9338 12.5688C69.9338 10.8321 68.5259 9.42419 66.7892 9.42419C65.0524 9.42419 63.6445 10.8321 63.6445 12.5688C63.6445 14.3056 65.0524 15.7135 66.7892 15.7135Z" fill="white"/>
</svg>
